# xmcd
#
# Track frame offsets: 
#        150
#        17687
#        39340
#        58512
#        82095
#        101162
#        127845
#        149492
#        166342
#
# Disc length: 2402 seconds
#
# Revision: 12
# Processed by: cddbd v1.5.2PL0 Copyright (c) Steve Scherf et al.
# Submitted via: ExactAudioCopy v1.0b3
#
DISCID=72096009
DTITLE=Joe Hisaishi - Nausicaä of the Valley of Wind -  Best Collectio
DTITLE=n Disk1
DYEAR=1987
DGENRE=Anime
TTITLE0=Nausicaä of the Valley of Wind (Opening)
TTITLE1=An Ohmu Stampede
TTITLE2=The Valley of Wind
TTITLE3=The Princess Who Loves Insects
TTITLE4=Kushana's Invasion
TTITLE5=Battle
TTITLE6=Interchange with the Ohmu  -  7  -  1987  -  Soundtrack  -
TTITLE7=In the Sea of Corruption
TTITLE8=Annihilation of Pejite
EXTD=\n YEAR: 1987
EXTT0=
EXTT1=
EXTT2=
EXTT3=
EXTT4=
EXTT5=
EXTT6=
EXTT7=
EXTT8=
PLAYORDER=
